 <svg width="200" height="200" viewBox="0 0 200 200" fill="none" xmlns="http://www.w3.org/2000/svg">
  <rect width="200" height="200" fill="#f3f4f6"/>
  <path d="M100 80C88.9543 80 80 88.9543 80 100C80 111.046 88.9543 120 100 120C111.046 120 120 111.046 120 100C120 88.9543 111.046 80 100 80ZM100 110C94.4772 110 90 105.523 90 100C90 94.4772 94.4772 90 100 90C105.523 90 110 94.4772 110 100C110 105.523 105.523 110 100 110Z" fill="#9ca3af"/>
  <path d="M140 60H60C58.8954 60 58 60.8954 58 62V138C58 139.105 58.8954 140 60 140H140C141.105 140 142 139.105 142 138V62C142 60.8954 141.105 60 140 60ZM130 130H70V70H130V130Z" fill="#9ca3af"/>
  <path d="M130 70H70V130H130V70ZM68 68V132H132V68H68Z" fill="#9ca3af"/>
</svg> 