<svg width="80" height="80" viewBox="0 0 80 80" fill="none" xmlns="http://www.w3.org/2000/svg">
<path d="M35.3714 5C36.3376 5 37.3019 5.16371 38.1943 5.53504C38.7513 5.76862 39.2784 6.07207 39.7495 6.49931C41.6002 8.17829 42.3189 10.2546 41.692 12.6642C41.0372 15.1857 39.3442 16.699 36.7828 17.1841C36.4175 17.254 35.8126 17.3039 35.4412 17.3039C25.2955 17.3079 15.1477 17.3079 5.00195 17.3059V5H35.3714Z" fill="#303341"/>
<path d="M5.002 68.1764C5.52506 65.2976 6.43941 64.8344 9.93912 61.3986C12.816 64.2755 15.6908 67.1503 18.6315 70.093C17.1182 71.4246 15.9104 73.2513 13.9899 74.2815C10.3943 76.21 5.93432 74.0718 5.12777 70.067C5.09184 69.8914 5.04192 69.7197 5 69.544C5 69.0888 5 68.6316 5 68.1764H5.002Z" fill="#303341"/>
<path d="M54.978 16.1241C57.9626 19.1147 60.8075 21.9656 63.6344 24.7965C49.5957 38.8093 35.525 52.8581 21.5042 66.8549C18.7132 64.0619 15.8384 61.1871 13.0693 58.4161C26.9803 44.3773 40.9752 30.2527 54.978 16.1221V16.1241Z" fill="#303341"/>
<path d="M66.2254 22.6061C63.2488 19.6235 60.4039 16.7766 57.4951 13.8618C57.8605 13.5863 58.2178 13.219 58.649 13.0054C63.8677 10.434 69.0963 7.88659 74.3229 5.33517C74.4766 5.25931 74.6383 5.20141 74.9717 5.06366C72.013 10.997 69.1342 16.7726 66.2235 22.6081L66.2254 22.6061Z" fill="#303341"/>
</svg>
