<svg width="80" height="80" viewBox="0 0 80 80" fill="none" xmlns="http://www.w3.org/2000/svg">
<path d="M18.6977 74.9983C18.0235 74.6823 17.2891 74.4557 16.6899 74.0337C15.6065 73.2701 15.0292 72.1374 15.0219 70.8165C14.9927 65.5075 15.011 60.1985 15 54.8913C15 54.3908 15.1954 54.2063 15.6905 54.2081C22.525 54.2172 29.3614 54.2172 36.1958 54.2081C36.6891 54.2081 36.8919 54.3871 36.89 54.8895C36.8791 60.1985 36.901 65.5075 36.8681 70.8147C36.8572 72.6836 35.5217 74.2986 33.7076 74.8339C33.534 74.8851 33.3641 74.9435 33.1924 75.0002H18.6958L18.6977 74.9983Z" fill="#303341"/>
<path d="M46.0485 74.9981C44.9158 74.5798 43.8653 73.9495 43.6461 72.7127C43.4214 71.4503 43.4981 70.1331 43.478 68.8396C43.4762 68.7099 43.7082 68.5272 43.8708 68.456C44.0243 68.3884 44.2289 68.434 44.4116 68.434C51.0652 68.434 57.7188 68.434 64.3725 68.434C65.3243 68.434 65.3298 68.4413 65.3298 69.3877C65.3298 70.0947 65.3316 70.7999 65.3298 71.5069C65.3224 73.1931 64.535 74.3039 62.9566 74.8666C62.8762 74.8958 62.8068 74.9525 62.7319 74.9981H46.0485Z" fill="#303341"/>
<path d="M54.3168 61.8697C50.9918 61.8697 47.665 61.8697 44.34 61.8697C43.4814 61.8697 43.4504 61.8368 43.4504 60.9837C43.4504 54.4232 43.4467 47.8628 43.4504 41.3042C43.4522 38.5711 45.3101 36.7132 48.0395 36.7113C52.2761 36.7058 56.5128 36.7058 60.7494 36.7113C63.4477 36.715 65.324 38.5675 65.3258 41.2475C65.3331 47.8299 65.3295 54.4141 65.3258 60.9965C65.3258 61.8405 65.2911 61.8734 64.4269 61.8734C61.0563 61.8734 57.6838 61.8734 54.3132 61.8734L54.3168 61.8697Z" fill="#303341"/>
<path d="M25.9411 38.9094C23.2318 38.9094 20.5243 38.8966 17.815 38.9204C17.3327 38.9241 17.1792 38.7889 17.1847 38.3102C17.2066 36.5801 17.1755 34.85 17.1993 33.1218C17.2212 31.4392 18.5202 30.1567 20.2155 30.1512C24.0393 30.1366 27.863 30.1366 31.6867 30.1512C33.3803 30.1585 34.6664 31.441 34.6901 33.1346C34.7157 34.8647 34.6902 36.5947 34.703 38.323C34.7066 38.7395 34.6171 38.9295 34.133 38.9241C31.4017 38.9003 28.6705 38.9131 25.9393 38.9131C25.9393 38.9131 25.9393 38.9113 25.9393 38.9094H25.9411Z" fill="#303341"/>
<path d="M25.9374 27.9606C23.9552 27.9606 21.973 27.9515 19.9908 27.9698C19.5651 27.9734 19.3696 27.8729 19.3751 27.4034C19.4317 23.2801 19.4646 19.1586 19.5267 15.0352C19.5358 14.4707 19.6528 13.9044 19.7478 13.3435C19.7789 13.1572 19.8976 12.9854 19.978 12.8064C20.1443 12.9361 20.3598 13.0329 20.4676 13.1992C21.4176 14.6772 22.6088 15.9213 24.0867 16.8694C25.9758 18.0807 27.9963 18.8443 30.2873 18.3785C30.8572 18.2634 31.4017 18.0003 31.9443 17.7738C32.3298 17.613 32.5088 17.7007 32.5088 18.1245C32.5088 21.2467 32.5033 24.3671 32.5142 27.4893C32.5142 27.9734 32.2293 27.9661 31.884 27.9643C29.9018 27.957 27.9196 27.9606 25.9374 27.9625V27.9606Z" fill="#303341"/>
<path d="M25.9539 47.6474C22.6034 47.6474 19.2546 47.6474 15.9041 47.6474C15.0399 47.6474 15.0089 47.6145 15.007 46.7686C15.0052 45.9483 14.9924 45.1281 15.0107 44.3078C15.0509 42.5174 16.454 41.0979 18.2462 41.0924C23.3725 41.076 28.5006 41.076 33.6269 41.0924C35.4539 41.0979 36.8459 42.5211 36.8825 44.3608C36.8989 45.181 36.8569 46.0031 36.8953 46.8216C36.9245 47.4428 36.7034 47.6656 36.0713 47.6602C32.6989 47.6382 29.3264 47.6492 25.9539 47.6492V47.6474Z" fill="#303341"/>
<path d="M24.5311 5C25.8209 5 26.4731 5.27221 27.2678 5.65403C29.968 6.89268 31.6689 8.74517 32.3503 11.692C33.0866 14.8818 30.9271 16.9151 27.7501 16.1661C24.6663 15.4371 21.7086 12.2656 21.2098 9.14526C20.8298 6.77576 22.1452 5.09317 24.5311 5Z" fill="#303341"/>
<path d="M25.9576 49.836C29.3027 49.836 32.6496 49.836 35.9947 49.836C36.857 49.836 36.8825 49.8653 36.8862 50.7184C36.8911 51.5893 36.4605 52.0247 35.5946 52.0247C29.0853 52.0247 22.576 52.0283 16.0667 52.0137C15.7324 52.0137 15.1368 51.9059 15.1112 51.7689C15.0107 51.2062 15.0491 50.607 15.1277 50.0334C15.1405 49.9365 15.599 49.8452 15.8511 49.8434C19.22 49.8306 22.5888 49.8342 25.9576 49.8342V49.836Z" fill="#303341"/>
<path d="M54.3572 66.2473C51.0341 66.2473 47.7109 66.2473 44.3878 66.2473C43.4743 66.2473 43.4524 66.2235 43.4488 65.3412C43.4451 64.4862 43.8598 64.0587 44.6928 64.0587C51.1802 64.0587 57.6658 64.0587 64.1531 64.0587C64.9387 64.0587 65.3309 64.4624 65.3297 65.2699C65.3297 65.3375 65.3224 65.4069 65.3297 65.4745C65.4009 66.0829 65.1086 66.2583 64.5295 66.2546C61.1387 66.2363 57.7462 66.2455 54.3554 66.2455L54.3572 66.2473Z" fill="#303341"/>
</svg>
