<svg width="80" height="80" viewBox="0 0 80 80" fill="none" xmlns="http://www.w3.org/2000/svg">
<path d="M15.4095 23.1813H43.231C43.1749 24.357 43.1292 25.512 43.0648 26.6629C42.7199 33.0257 42.373 39.3864 42.024 45.7492C41.6314 52.9139 41.2367 60.0764 40.84 67.239C40.7922 68.0907 40.7756 68.9507 40.6468 69.792C40.2064 72.6836 37.7219 74.9168 34.8012 74.9583C31.1244 75.0123 27.4434 75.0165 23.7665 74.9562C20.769 74.9064 18.1723 72.5133 17.9251 69.5282C17.6426 66.1214 17.5034 62.7042 17.3144 59.2912C16.9114 51.9978 16.5126 44.7043 16.1179 37.4129C15.8665 32.7826 15.6255 28.1544 15.3804 23.524C15.3763 23.4264 15.397 23.3267 15.4095 23.1813ZM35.9354 48.9815C35.7879 47.6977 35.7111 46.4015 35.4763 45.1364C35.0422 42.7911 34.2383 40.5871 32.5224 38.838C30.603 36.8812 28.0479 36.8521 26.1326 38.811C25.4907 39.4674 24.907 40.2402 24.5061 41.0607C22.3789 45.4023 22.3124 49.9308 23.4819 54.53C23.9265 56.2833 24.6826 57.8932 25.9996 59.1811C28.0354 61.1733 30.6071 61.1961 32.5993 59.1541C33.2723 58.4644 33.8353 57.619 34.2736 56.7548C35.5034 54.3244 35.8087 51.6799 35.9375 48.9815H35.9354Z" fill="#303341"/>
<path d="M54.0058 15.3352V12.643C52.8675 12.643 51.7602 12.6471 50.6551 12.643C49.6518 12.6388 49.0847 12.2088 49.0597 11.4485C49.0327 10.6695 49.6518 10.1647 50.6593 10.1585C51.7457 10.1523 52.8301 10.1585 53.9788 10.1585V7.48914C53.3307 7.48914 52.668 7.49537 52.0033 7.48914C51.054 7.47875 50.464 6.97189 50.4931 6.20121C50.5201 5.45961 51.081 5.00675 52.0095 5.00467C54.2115 4.99844 56.4155 4.99844 58.6175 5.00467C59.5606 5.00675 60.0924 5.44714 60.111 6.20744C60.1297 7.00305 59.5792 7.4746 58.6091 7.48914C57.988 7.49745 57.3669 7.5016 56.7458 7.51199C56.7022 7.51199 56.6565 7.55354 56.5734 7.59508V10.1564C57.4562 10.1564 58.3245 10.1564 59.1929 10.1564C59.5294 10.1564 59.868 10.1439 60.2024 10.1606C61.0375 10.2021 61.5776 10.7277 61.5506 11.4547C61.5257 12.1548 61.0022 12.6263 60.1879 12.6388C59.2033 12.6554 58.2186 12.6409 57.234 12.645C57.0325 12.645 56.831 12.67 56.5817 12.6866V15.3352C58.0171 15.3352 59.4089 15.3352 60.8007 15.3352C61.1372 15.3352 61.4779 15.3206 61.8103 15.3601C62.5166 15.4452 62.9653 15.95 62.9528 16.6023C62.9403 17.2525 62.4771 17.7718 61.7646 17.7947C60.4704 17.8362 59.1742 17.8155 57.8779 17.8196C57.4687 17.8196 57.0595 17.8196 56.59 17.8196V20.5243C57.8052 20.5243 59.0142 20.5077 60.2191 20.5305C61.2369 20.5492 61.8996 21.4611 61.4031 22.2505C61.1725 22.6182 60.6075 22.9215 60.1609 22.9755C59.2407 23.0856 58.2996 23.0067 57.3669 23.0129C57.1156 23.0129 56.8642 23.0358 56.5713 23.0482V25.6822C57.2651 25.6822 57.9506 25.676 58.6382 25.6822C59.5689 25.6926 60.0923 26.1496 60.0861 26.9307C60.0799 27.7035 59.5522 28.1501 58.6175 28.1667C57.9963 28.1771 57.3752 28.1771 56.752 28.1854C56.7063 28.1854 56.6606 28.2228 56.5277 28.281C56.5277 30.1277 56.5152 32.0118 56.5485 33.8959C56.5505 34.0663 56.8247 34.2865 57.0221 34.3883C58.5115 35.1652 59.33 36.3783 59.3383 38.0589C59.3591 42.6186 59.3466 47.1804 59.3445 51.7401C59.3445 51.8419 59.3217 51.9436 59.3009 52.1119H51.2222C51.2222 51.8419 51.2222 51.5697 51.2222 51.2955C51.2222 47.0453 51.2388 42.7952 51.216 38.5471C51.2056 36.6318 51.914 35.188 53.6859 34.3343C53.8376 34.2616 54.0183 34.0476 54.0204 33.898C54.0432 32.0139 54.0349 30.1298 54.0349 28.1688C53.3681 28.1688 52.7802 28.1688 52.1903 28.1688C51.0768 28.1667 50.4723 27.7388 50.4578 26.9411C50.4432 26.1351 51.0477 25.6864 52.1508 25.6822C52.695 25.6822 53.2393 25.6781 53.7835 25.6719C53.8313 25.6719 53.8791 25.6449 53.983 25.6137V23.0108C52.9755 23.0108 51.9742 23.0129 50.9729 23.0108C50.6883 23.0108 50.3996 23.0233 50.1212 22.9755C49.444 22.8592 48.9953 22.2962 49.041 21.6668C49.0888 21.0208 49.5749 20.5471 50.2895 20.5347C51.5006 20.5118 52.7137 20.5284 53.983 20.5284V17.8217C52.7927 17.8217 51.6086 17.8217 50.4266 17.8217C49.9343 17.8217 49.442 17.8383 48.9496 17.8113C48.1519 17.7698 47.6305 17.2629 47.6368 16.5691C47.643 15.8794 48.1665 15.3663 48.9704 15.3455C50.0319 15.3165 51.0955 15.3352 52.157 15.3352C52.749 15.3352 53.339 15.3352 54.0017 15.3352H54.0058Z" fill="#303341"/>
<path d="M63.7584 65.4524H46.8532C46.606 64.0606 46.3526 62.6459 46.1054 61.2313C45.8437 59.7273 45.5881 58.2233 45.3306 56.7193C45.0647 55.1676 45.478 54.6753 47.0651 54.6732C52.5534 54.6711 58.0437 54.6711 63.532 54.6732C65.119 54.6732 65.5158 55.1634 65.2478 56.7193C64.7451 59.6193 64.257 62.5213 63.7563 65.4524H63.7584Z" fill="#303341"/>
<path d="M43.3928 20.5948H15.212C15.1331 18.9413 15.0209 17.321 15.0001 15.7007C14.9918 15.1003 15.4384 14.7264 16.0533 14.6433C16.2818 14.6121 16.5186 14.6267 16.7513 14.6267C25.1145 14.6267 33.4757 14.6267 41.839 14.6267C43.3264 14.6267 43.6753 14.9861 43.6068 16.4693C43.5445 17.8133 43.4676 19.1552 43.3928 20.5969V20.5948Z" fill="#303341"/>
<path d="M63.3041 68.0182C63.1483 68.9343 63.0195 69.7777 62.8574 70.6128C62.4067 72.9539 60.4208 74.6261 58.0298 74.6552C56.2184 74.676 54.4069 74.6739 52.5976 74.6552C50.2191 74.6303 48.2747 73.0494 47.7637 70.7228C47.5705 69.8441 47.4417 68.953 47.2734 68.0182H63.3041Z" fill="#303341"/>
<path d="M38.445 12.0903H20.1709C20.1709 10.9664 20.1252 9.88416 20.1854 8.80811C20.2291 8.03743 20.7671 7.65935 21.6582 7.6552C23.8062 7.64689 25.9541 7.65312 28.1021 7.65312C30.9999 7.65312 33.8978 7.65105 36.7956 7.65312C38.0067 7.65312 38.4367 8.08313 38.4429 9.28174C38.4492 10.2248 38.4429 11.1679 38.4429 12.0903H38.445Z" fill="#303341"/>
<path d="M33.4174 49.0872C33.3592 51.3182 33.0497 53.4911 32.0796 55.5103C31.7161 56.2664 31.2237 56.9997 30.6462 57.6042C29.807 58.4808 28.8203 58.485 27.9769 57.6187C27.3932 57.0184 26.8447 56.3038 26.5269 55.5373C24.7384 51.2227 24.7529 46.8728 26.5228 42.5478C26.7554 41.9807 27.1065 41.4448 27.4908 40.9649C28.6645 39.4983 29.9358 39.4693 31.0762 40.9483C31.6205 41.6525 32.0443 42.4814 32.3746 43.3144C32.7173 44.1723 32.9458 45.0905 33.1037 46.0024C33.2782 47.0182 33.3177 48.0589 33.4153 49.0893L33.4174 49.0872Z" fill="#303341"/>
</svg>
