<svg width="80" height="80" viewBox="0 0 80 80" fill="none" xmlns="http://www.w3.org/2000/svg">
<path d="M40.0118 57.4974C35.9525 57.4974 31.8933 57.5058 27.8341 57.4828C27.4482 57.4808 26.9976 57.3577 26.6889 57.1345C19.192 51.7486 15.5792 44.4395 16.4073 35.2259C17.3731 24.4582 25.2913 15.9998 35.8816 14.1141C50.2517 11.5546 62.0309 22.2993 63.489 34.1662C64.6634 43.7261 61.1757 51.444 53.3242 57.1053C52.9967 57.341 52.5211 57.4766 52.1123 57.4787C48.0781 57.5058 44.046 57.4954 40.0118 57.4954V57.4974ZM33.1302 20.5805C33.1302 19.5688 32.1645 19.0515 31.1549 19.5605C27.129 21.5943 24.0919 24.6272 22.0539 28.6531C21.6409 29.4666 21.8495 30.18 22.5504 30.5137C23.2158 30.8308 23.8416 30.5638 24.2796 29.792C24.6509 29.137 25.0034 28.4695 25.4185 27.8437C27.1207 25.278 29.3526 23.2964 32.0935 21.8946C32.6505 21.6089 33.1386 21.296 33.1323 20.5805H33.1302Z" fill="#303341"/>
<path d="M22.974 57.4974C20.5376 57.4974 18.2785 57.4119 16.0299 57.5308C14.7825 57.5975 14.0774 57.1574 13.3724 56.1645C5.62311 45.2425 5.49588 30.7849 13.1742 19.381C18.1721 11.9572 25.0244 7.15742 33.8709 5.55333C51.6869 2.32429 67.9323 13.5696 71.6557 30.3718C73.8021 40.0548 71.787 48.9471 65.9443 56.9613C65.7712 57.1991 65.4375 57.4682 65.1767 57.4724C62.5234 57.5099 59.8701 57.4953 57.0353 57.4953C63.4391 51.6943 66.5868 44.575 66.1801 36.0852C65.7691 27.5412 61.7078 20.8871 54.845 15.9434C44.1066 8.20456 28.8334 10.1549 20.2289 20.3072C11.4554 30.6597 10.9923 47.1824 22.9761 57.4974H22.974Z" fill="#303341"/>
<path d="M28.7417 59.9963C28.7417 60.8786 28.7313 61.6796 28.7417 62.4785C28.7813 65.3029 30.9299 67.4702 33.7542 67.4869C37.9178 67.5098 42.0834 67.5119 46.2469 67.4869C49.0296 67.4702 51.1739 65.3029 51.224 62.5223C51.2386 61.7172 51.2261 60.9141 51.2261 60.0338C51.5118 60.0192 51.7601 59.9983 52.0104 59.9983C57.8927 59.9983 63.773 59.9942 69.6554 59.9983C73.0367 60.0004 75.2353 62.4222 74.9391 65.8098C74.4885 70.9766 70.2144 74.9775 65.0267 74.9837C48.3183 75.0046 31.6099 75.0067 14.9015 74.9817C9.39465 74.9733 4.90152 70.3509 5.00164 64.9149C5.04962 62.2991 7.12304 60.0484 9.72212 60.0234C15.7588 59.9629 21.7976 60.0004 27.8364 59.9963C28.0951 59.9963 28.3558 59.9963 28.7396 59.9963H28.7417Z" fill="#303341"/>
<path d="M31.2536 60.0337H48.7046C48.7046 60.9995 48.7734 61.934 48.6879 62.8539C48.5773 64.0262 47.5448 64.9711 46.3516 64.9774C42.113 65.0066 37.8723 65.0045 33.6336 64.9774C32.4113 64.969 31.3641 63.9907 31.2682 62.7934C31.1952 61.8944 31.2536 60.9849 31.2536 60.0316V60.0337Z" fill="#303341"/>
</svg>
