<svg width="20" height="20" viewBox="0 0 20 20" fill="none" xmlns="http://www.w3.org/2000/svg">
<rect width="20" height="20" rx="10" fill="white"/>
<path d="M14.9004 8C14.9004 8 14.8027 7.31055 14.502 7.00781C14.1211 6.60938 13.6953 6.60742 13.5 6.58398C12.1016 6.48242 10.002 6.48242 10.002 6.48242H9.99805C9.99805 6.48242 7.89844 6.48242 6.5 6.58398C6.30469 6.60742 5.87891 6.60938 5.49805 7.00781C5.19727 7.31055 5.10156 8 5.10156 8C5.10156 8 5 8.81055 5 9.61914V10.377C5 11.1855 5.09961 11.9961 5.09961 11.9961C5.09961 11.9961 5.19727 12.6855 5.49609 12.9883C5.87695 13.3867 6.37695 13.373 6.59961 13.416C7.40039 13.4922 10 13.5156 10 13.5156C10 13.5156 12.1016 13.5117 13.5 13.4121C13.6953 13.3887 14.1211 13.3867 14.502 12.9883C14.8027 12.6855 14.9004 11.9961 14.9004 11.9961C14.9004 11.9961 15 11.1875 15 10.377V9.61914C15 8.81055 14.9004 8 14.9004 8ZM8.9668 11.2969V8.48633L11.668 9.89648L8.9668 11.2969Z" fill="#002D34"/>
</svg>
