<svg width="40" height="40" viewBox="0 0 40 40" fill="none" xmlns="http://www.w3.org/2000/svg">
<g clip-path="url(#clip0_101_3735)">
<path d="M19.2484 40.0001C8.63706 40.0001 0 31.3025 0 20.6122C0 9.92177 8.63706 1.229 19.2484 1.229C21.1709 1.229 23.0699 1.5137 24.8934 2.07835C25.5154 2.26815 25.8641 2.93244 25.6756 3.55878C25.4871 4.18511 24.8274 4.53624 24.2054 4.34644C22.6081 3.85297 20.94 3.60148 19.2484 3.60148C9.93285 3.60148 2.35599 11.2361 2.35599 20.6122C2.35599 29.9882 9.93285 37.6228 19.2484 37.6228C28.564 37.6228 36.1409 29.9929 36.1409 20.6122C36.1409 19.4259 36.0184 18.2397 35.7781 17.0914C35.6461 16.4508 36.0514 15.8198 36.6875 15.6869C37.3283 15.554 37.9503 15.9621 38.0822 16.6027C38.3555 17.9123 38.4969 19.2598 38.4969 20.6122C38.4969 31.3025 29.8598 39.9953 19.2484 39.9953V40.0001Z" fill="white" fill-opacity="0.5"/>
<path d="M9.27339 14.1638L18.1932 27.2552C18.9989 28.4367 20.8601 28.541 21.5575 27.2884C29.1532 13.6798 39.8023 1.58968 39.8023 1.58968C40.4573 0.664414 39.317 -0.474376 38.4076 0.204153C34.0207 3.47817 27.3203 10.4533 21.1711 17.713C20.3041 18.738 19.9319 18.9847 18.7963 18.273L10.6116 12.7498C9.70218 12.1757 8.66083 13.267 9.26867 14.1591L9.27339 14.1638Z" fill="white" fill-opacity="0.5"/>
</g>
<defs>
<clipPath id="clip0_101_3735">
<rect width="40" height="40" fill="white"/>
</clipPath>
</defs>
</svg>
